<mxfile host="app.diagrams.net" modified="2023-04-12T13:20:01.961Z" agent="Mozilla/5.0 (Windows NT 10.0; Win64; x64) AppleWebKit/537.36 (KHTML, like Gecko) Chrome/112.0.0.0 Safari/537.36 Edg/112.0.1722.34" version="21.1.5" etag="52ON6PRtIE6MPojyt3Ik" type="github">
  <diagram name="第 1 页" id="wkXV5QD_BnJz_Ed2y1v6">
    <mxGraphModel>
      <root>
        <mxCell id="0" />
        <mxCell id="1" parent="0" />
      </root>
    </mxGraphModel>
  </diagram>
</mxfile>
